<svg width="323" height="75" viewBox="0 0 323 75" fill="none" xmlns="http://www.w3.org/2000/svg">
<path d="M1.5 40.4915C1.5 19.2285 18.737 1.99146 40 1.99146H283C304.263 1.99146 321.5 19.2285 321.5 40.4915V66.4915C321.5 70.0813 318.59 72.9915 315 72.9915H8.00001C4.41015 72.9915 1.5 70.0813 1.5 66.4915V40.4915Z" fill="url(#paint0_linear_0_169)"/>
<path d="M1.5 40.4915C1.5 19.2285 18.737 1.99146 40 1.99146H283C304.263 1.99146 321.5 19.2285 321.5 40.4915V66.4915C321.5 70.0813 318.59 72.9915 315 72.9915H8.00001C4.41015 72.9915 1.5 70.0813 1.5 66.4915V40.4915Z" stroke="url(#paint1_linear_0_169)" stroke-width="3"/>
<path d="M93.112 28.1915H103.936C104.296 28.1915 104.464 28.3595 104.464 28.7195V31.0715C104.464 31.4315 104.296 31.6235 103.936 31.6235H93.256C90.784 31.6235 90.064 32.3435 90.064 34.8875V38.2955C90.064 40.8395 90.784 41.5835 93.256 41.5835H103.936C104.296 41.5835 104.464 41.7515 104.464 42.1115V44.4635C104.464 44.8235 104.296 44.9915 103.936 44.9915H93.112C88.264 44.9915 86.392 43.2635 86.392 38.6555V34.5275C86.392 29.9195 88.264 28.1915 93.112 28.1915ZM113.55 28.1915H120.966C125.838 28.1915 127.686 29.9195 127.686 34.5275V38.6555C127.686 43.2635 125.838 44.9915 120.966 44.9915H113.55C108.702 44.9915 106.83 43.2635 106.83 38.6555V34.5275C106.83 29.9195 108.702 28.1915 113.55 28.1915ZM110.502 34.7915V38.3915C110.502 40.9115 111.222 41.6555 113.694 41.6555H120.822C123.294 41.6555 124.014 40.9115 124.014 38.3915V34.7915C124.014 32.2715 123.294 31.5275 120.822 31.5275H113.694C111.222 31.5275 110.502 32.2715 110.502 34.7915ZM132.83 28.1915H134.942C136.478 28.1915 136.814 28.3835 137.726 29.6075L146.654 41.3195C146.726 41.4395 146.822 41.4875 146.966 41.4875H147.182C147.302 41.4875 147.374 41.4155 147.374 41.2475V28.7195C147.374 28.3595 147.542 28.1915 147.902 28.1915H150.422C150.782 28.1915 150.95 28.3595 150.95 28.7195V42.4955C150.95 44.4395 150.254 44.9915 148.79 44.9915H146.726C145.262 44.9915 144.902 44.8475 143.942 43.5755L134.99 31.8635C134.894 31.7435 134.822 31.6955 134.678 31.6955H134.462C134.318 31.6955 134.27 31.7675 134.27 31.9355V44.4635C134.27 44.8235 134.102 44.9915 133.742 44.9915H131.222C130.862 44.9915 130.67 44.8235 130.67 44.4635V30.6875C130.67 28.7435 131.366 28.1915 132.83 28.1915ZM156.291 28.1915H158.403C159.939 28.1915 160.275 28.3835 161.187 29.6075L170.115 41.3195C170.187 41.4395 170.283 41.4875 170.427 41.4875H170.643C170.763 41.4875 170.835 41.4155 170.835 41.2475V28.7195C170.835 28.3595 171.003 28.1915 171.363 28.1915H173.883C174.243 28.1915 174.411 28.3595 174.411 28.7195V42.4955C174.411 44.4395 173.715 44.9915 172.251 44.9915H170.187C168.723 44.9915 168.363 44.8475 167.403 43.5755L158.451 31.8635C158.355 31.7435 158.283 31.6955 158.139 31.6955H157.923C157.779 31.6955 157.731 31.7675 157.731 31.9355V44.4635C157.731 44.8235 157.563 44.9915 157.203 44.9915H154.683C154.323 44.9915 154.131 44.8235 154.131 44.4635V30.6875C154.131 28.7435 154.827 28.1915 156.291 28.1915ZM184.12 28.1915H194.68C195.04 28.1915 195.232 28.3595 195.232 28.7195V30.9995C195.232 31.3595 195.04 31.5275 194.68 31.5275H184.192C181.696 31.5275 181 32.2715 181 34.7915V35.0315H194.56C194.92 35.0315 195.088 35.1995 195.088 35.5595V37.4555C195.088 37.8155 194.92 37.9835 194.56 37.9835H181V38.3915C181 40.9115 181.696 41.6555 184.192 41.6555H194.68C195.04 41.6555 195.232 41.8235 195.232 42.1835V44.4635C195.232 44.8235 195.04 44.9915 194.68 44.9915H184.12C179.272 44.9915 177.4 43.2635 177.4 38.6555V34.5275C177.4 29.9195 179.272 28.1915 184.12 28.1915ZM204.51 28.1915H215.334C215.694 28.1915 215.862 28.3595 215.862 28.7195V31.0715C215.862 31.4315 215.694 31.6235 215.334 31.6235H204.654C202.182 31.6235 201.462 32.3435 201.462 34.8875V38.2955C201.462 40.8395 202.182 41.5835 204.654 41.5835H215.334C215.694 41.5835 215.862 41.7515 215.862 42.1115V44.4635C215.862 44.8235 215.694 44.9915 215.334 44.9915H204.51C199.662 44.9915 197.79 43.2635 197.79 38.6555V34.5275C197.79 29.9195 199.662 28.1915 204.51 28.1915ZM217.94 28.1915H236.684C237.044 28.1915 237.236 28.3595 237.236 28.7195V31.0715C237.236 31.4315 237.044 31.6235 236.684 31.6235H229.148V44.4635C229.148 44.8235 228.98 44.9915 228.62 44.9915H226.004C225.644 44.9915 225.476 44.8235 225.476 44.4635V31.6235H217.94C217.58 31.6235 217.388 31.4315 217.388 31.0715V28.7195C217.388 28.3595 217.58 28.1915 217.94 28.1915Z" fill="white"/>
<defs>
<linearGradient id="paint0_linear_0_169" x1="-39" y1="0.508557" x2="326.834" y2="191.879" gradientUnits="userSpaceOnUse">
<stop stop-color="#8E8E8E"/>
<stop stop-color="#8E8E8E"/>
<stop offset="0.0001" stop-color="#8C8C8D"/>
<stop offset="0.0259417" stop-color="#8A8A8B"/>
<stop offset="0.0260417" stop-color="#868687"/>
<stop offset="0.192708" stop-color="#55555C"/>
<stop offset="0.453125" stop-color="#090719"/>
<stop offset="0.453225" stop-color="#0A081A"/>
<stop offset="0.9999" stop-color="#8B8B8C"/>
<stop offset="1" stop-color="#8E8E8E"/>
</linearGradient>
<linearGradient id="paint1_linear_0_169" x1="13" y1="16" x2="409" y2="74" gradientUnits="userSpaceOnUse">
<stop stop-color="#090719"/>
<stop offset="0.151042" stop-color="#8E8E8E"/>
<stop offset="0.322917" stop-color="#090719"/>
<stop offset="0.494792" stop-color="#8E8E8E"/>
<stop offset="0.682292" stop-color="#090719"/>
<stop offset="0.828125" stop-color="#8E8E8E"/>
<stop offset="1" stop-color="#090719"/>
</linearGradient>
</defs>
</svg>
