<svg width="198" height="212" viewBox="0 0 198 212" fill="none" xmlns="http://www.w3.org/2000/svg">
<g id="Gold spin 1">
<path id="Vector" d="M80.6308 203.546L33.3199 46.3021C33.3199 46.3021 87.2322 29.8584 138.351 45.3445L98.2506 204.2L80.6308 203.546Z" fill="#FFF300" stroke="#E98100" stroke-width="2.1311" stroke-miterlimit="10"/>
<path id="Vector_2" d="M43.2968 50.4836L62.1748 112.079C62.6617 113.627 63.4747 115.053 64.5589 116.261C65.6432 117.469 66.9736 118.431 68.4606 119.082C69.9476 119.732 71.5568 120.057 73.1798 120.034C74.8027 120.01 76.4019 119.64 77.8697 118.947L111.281 102.938C113.028 102.1 114.585 100.914 115.857 99.4516C117.129 97.9895 118.088 96.2826 118.676 94.436L131.935 52.5595C131.935 52.5595 93.3201 36.0556 43.2968 50.4836Z" fill="#EA8200"/>
<path id="Vector_3" d="M94.4447 195.619L115.245 119.039C115.245 119.039 86.7534 124.957 75.1429 135.023C73.6406 136.338 72.5432 138.053 71.9785 139.968C71.4139 141.883 71.4053 143.919 71.9539 145.838L87.867 196.956L94.4447 195.619Z" fill="#EB8200"/>
</g>
</svg>
