<svg width="323" height="75" viewBox="0 0 323 75" fill="none" xmlns="http://www.w3.org/2000/svg">
<path d="M1.5 40.4915C1.5 19.2285 18.737 1.99146 40 1.99146H283C304.263 1.99146 321.5 19.2285 321.5 40.4915V66.4915C321.5 70.0813 318.59 72.9915 315 72.9915H8.00001C4.41015 72.9915 1.5 70.0813 1.5 66.4915V40.4915Z" fill="url(#paint0_linear_0_918)"/>
<path d="M1.5 40.4915C1.5 19.2285 18.737 1.99146 40 1.99146H283C304.263 1.99146 321.5 19.2285 321.5 40.4915V66.4915C321.5 70.0813 318.59 72.9915 315 72.9915H8.00001C4.41015 72.9915 1.5 70.0813 1.5 66.4915V40.4915Z" stroke="url(#paint1_linear_0_918)" stroke-width="3"/>
<path d="M93.064 28.1915H95.656C96.016 28.1915 96.184 28.3595 96.184 28.7195V38.6555C96.184 43.2635 94.336 44.9915 89.464 44.9915H80.104C79.744 44.9915 79.552 44.8235 79.552 44.4635V42.1115C79.552 41.7515 79.744 41.5835 80.104 41.5835H89.344C91.816 41.5835 92.512 40.8395 92.512 38.2955V28.7195C92.512 28.3595 92.704 28.1915 93.064 28.1915ZM105.862 28.1915H113.278C118.15 28.1915 119.998 29.9195 119.998 34.5275V38.6555C119.998 43.2635 118.15 44.9915 113.278 44.9915H105.862C101.014 44.9915 99.142 43.2635 99.142 38.6555V34.5275C99.142 29.9195 101.014 28.1915 105.862 28.1915ZM102.814 34.7915V38.3915C102.814 40.9115 103.534 41.6555 106.006 41.6555H113.134C115.606 41.6555 116.326 40.9115 116.326 38.3915V34.7915C116.326 32.2715 115.606 31.5275 113.134 31.5275H106.006C103.534 31.5275 102.814 32.2715 102.814 34.7915ZM123.534 28.1915H126.126C126.486 28.1915 126.654 28.3595 126.654 28.7195V44.4635C126.654 44.8235 126.486 44.9915 126.126 44.9915H123.534C123.174 44.9915 122.982 44.8235 122.982 44.4635V28.7195C122.982 28.3595 123.174 28.1915 123.534 28.1915ZM132.01 28.1915H134.122C135.658 28.1915 135.994 28.3835 136.906 29.6075L145.834 41.3195C145.906 41.4395 146.002 41.4875 146.146 41.4875H146.362C146.482 41.4875 146.554 41.4155 146.554 41.2475V28.7195C146.554 28.3595 146.722 28.1915 147.082 28.1915H149.602C149.962 28.1915 150.13 28.3595 150.13 28.7195V42.4955C150.13 44.4395 149.434 44.9915 147.97 44.9915H145.906C144.442 44.9915 144.082 44.8475 143.122 43.5755L134.17 31.8635C134.074 31.7435 134.002 31.6955 133.858 31.6955H133.642C133.498 31.6955 133.45 31.7675 133.45 31.9355V44.4635C133.45 44.8235 133.282 44.9915 132.922 44.9915H130.402C130.042 44.9915 129.85 44.8235 129.85 44.4635V30.6875C129.85 28.7435 130.546 28.1915 132.01 28.1915ZM165.31 28.1915H178.03C178.39 28.1915 178.558 28.3595 178.558 28.7195V30.9995C178.558 31.3595 178.39 31.5275 178.03 31.5275H166.006C165.094 31.5275 164.734 32.0315 164.734 32.8715V33.6875C164.734 34.5755 165.142 35.0315 165.982 35.0315H174.982C177.742 35.0315 179.182 36.5195 179.182 39.1595V41.0795C179.182 43.4075 177.838 44.9915 174.934 44.9915H161.638C161.278 44.9915 161.086 44.8235 161.086 44.4635V42.1835C161.086 41.8235 161.278 41.6555 161.638 41.6555H174.238C175.15 41.6555 175.51 41.1515 175.51 40.3115V39.3275C175.51 38.4395 175.102 37.9835 174.262 37.9835H165.262C162.502 37.9835 161.062 36.4955 161.062 33.8555V32.1035C161.062 29.7755 162.406 28.1915 165.31 28.1915ZM182.432 28.1915H185.024C185.384 28.1915 185.552 28.3595 185.552 28.7195V38.2955C185.552 40.8395 186.272 41.5835 188.744 41.5835H198.464C198.824 41.5835 198.992 41.7515 198.992 42.1115V44.4635C198.992 44.8235 198.824 44.9915 198.464 44.9915H188.6C183.752 44.9915 181.88 43.2635 181.88 38.6555V28.7195C181.88 28.3595 182.072 28.1915 182.432 28.1915ZM207.675 28.1915H215.091C219.963 28.1915 221.811 29.9195 221.811 34.5275V38.6555C221.811 43.2635 219.963 44.9915 215.091 44.9915H207.675C202.827 44.9915 200.955 43.2635 200.955 38.6555V34.5275C200.955 29.9195 202.827 28.1915 207.675 28.1915ZM204.627 34.7915V38.3915C204.627 40.9115 205.347 41.6555 207.819 41.6555H214.947C217.419 41.6555 218.139 40.9115 218.139 38.3915V34.7915C218.139 32.2715 217.419 31.5275 214.947 31.5275H207.819C205.347 31.5275 204.627 32.2715 204.627 34.7915ZM223.846 28.1915H242.59C242.95 28.1915 243.142 28.3595 243.142 28.7195V31.0715C243.142 31.4315 242.95 31.6235 242.59 31.6235H235.054V44.4635C235.054 44.8235 234.886 44.9915 234.526 44.9915H231.91C231.55 44.9915 231.382 44.8235 231.382 44.4635V31.6235H223.846C223.486 31.6235 223.294 31.4315 223.294 31.0715V28.7195C223.294 28.3595 223.486 28.1915 223.846 28.1915Z" fill="white"/>
<defs>
<linearGradient id="paint0_linear_0_918" x1="-0.577819" y1="37.8507" x2="424.696" y2="37.8507" gradientUnits="userSpaceOnUse">
<stop stop-color="#0000FF"/>
<stop offset="1" stop-color="#FF00FF"/>
</linearGradient>
<linearGradient id="paint1_linear_0_918" x1="13" y1="16" x2="409" y2="74" gradientUnits="userSpaceOnUse">
<stop stop-color="#090719"/>
<stop offset="0.151042" stop-color="#8E8E8E"/>
<stop offset="0.322917" stop-color="#090719"/>
<stop offset="0.494792" stop-color="#8E8E8E"/>
<stop offset="0.682292" stop-color="#090719"/>
<stop offset="0.828125" stop-color="#8E8E8E"/>
<stop offset="1" stop-color="#090719"/>
</linearGradient>
</defs>
</svg>
