<svg width="73" height="72" viewBox="0 0 73 72" fill="none" xmlns="http://www.w3.org/2000/svg">
<path d="M21.459 11.1005C29.85 20.3842 43.6883 0.347665 51.8765 7.61916C56.588 11.8031 55.0985 21.0411 48.9821 27.0599" stroke="#FA00FF" stroke-width="1.5" stroke-linecap="round"/>
<path d="M41.8691 41.9517C41.9225 40.9482 42.2042 39.1119 40.6781 37.7166M40.6781 37.7166C40.2059 37.2846 39.5603 36.8949 38.6816 36.5853C35.5364 35.4768 31.673 39.1869 34.406 42.5832C35.8751 44.409 37.0076 44.9703 36.9011 47.0436C36.8261 48.5019 35.3933 50.0256 33.5054 50.6058C31.8653 51.1101 30.0559 50.4426 28.9116 49.1637C27.5143 47.6025 27.6554 46.1307 27.6435 45.489M40.6781 37.7166L42.4004 35.994M29.0361 49.3584L27.4004 50.994" stroke="#FA00FF" stroke-width="1.5" stroke-linecap="round" stroke-linejoin="round"/>
<path d="M55.3178 19.8989C58.0943 20.4322 58.7171 22.1855 59.546 27.0509C60.2927 31.4328 60.5021 36.6909 60.5021 38.9295C60.4259 39.7542 60.0875 40.524 59.546 41.1522C53.7407 47.2362 42.2192 58.7256 36.4043 64.4331C34.1222 66.4707 30.6791 66.5145 28.2572 64.6443C23.2978 60.1836 18.5328 55.1409 13.865 50.5872C11.9898 48.1719 12.0337 44.7387 14.077 42.4629C20.2286 36.0813 31.3601 25.1579 37.6439 19.1233C38.2739 18.5834 39.0458 18.2457 39.8729 18.1699C41.2829 18.1696 43.7015 18.3591 46.0577 18.4957" stroke="#FA00FF" stroke-width="1.5" stroke-linecap="round"/>
</svg>
