<svg width="73" height="72" viewBox="0 0 73 72" fill="none" xmlns="http://www.w3.org/2000/svg">
<path fill-rule="evenodd" clip-rule="evenodd" d="M43.9535 4.26152C47.0801 3.3977 50.6618 3.39173 53.7335 6.12713C57.0779 9.10535 57.9428 13.619 57.302 17.8238C56.6552 22.0671 54.4457 26.4513 50.9681 29.883C49.7888 31.0467 47.8895 31.0341 46.7258 29.8548C45.5618 28.6755 45.5744 26.776 46.7537 25.6122C49.3565 23.0439 50.9279 19.8236 51.3704 16.9195C51.8189 13.977 51.0827 11.8006 49.7432 10.608C48.7448 9.71897 47.5544 9.49145 45.5516 10.0448C43.5404 10.6005 41.3351 11.7782 38.7155 13.1771C38.5148 13.2843 38.3114 13.3929 38.1056 13.5026C35.4281 14.9294 32.2574 16.5805 29.1214 17.1349C27.4924 17.4229 25.7502 17.4427 24.0059 16.9245C22.2384 16.3992 20.6487 15.3744 19.2716 13.8466C18.1623 12.6159 18.2608 10.719 19.4915 9.60965C20.7222 8.50037 22.6191 8.5988 23.7284 9.82952C24.4368 10.6154 25.1017 10.9908 25.7149 11.173C26.3513 11.3621 27.1161 11.3964 28.0769 11.2266C30.1208 10.8652 32.462 9.71117 35.2838 8.20748C35.5223 8.08046 35.7647 7.95056 36.0107 7.81874C38.4578 6.50744 41.2601 5.00567 43.9535 4.26152Z" fill="#00FFFF"/>
<path fill-rule="evenodd" clip-rule="evenodd" d="M58.9853 19.5132C57.8201 18.3478 56.4125 17.7523 54.8291 17.3719L44.5088 16.0269C41.9897 15.7444 40.0253 15.5241 38.1839 16.17C36.3425 16.8159 34.946 18.2152 33.1556 20.0094L32.852 20.3134L17.0633 36.102C15.0694 38.0958 13.4138 39.7512 12.2775 41.2404C11.0806 42.8094 10.25 44.4552 10.25 46.4424C10.25 48.4299 11.0806 50.0757 12.2775 51.6444C13.4138 53.1336 15.0693 54.789 17.0631 56.7828L21.7156 61.4352C23.7093 63.4293 25.3649 65.0847 26.8542 66.2211C28.4229 67.4178 30.0687 68.2485 32.0561 68.2485C34.0433 68.2485 35.6894 67.4178 37.2581 66.2211C38.7473 65.0847 40.4027 63.429 42.3965 61.4352L58.4891 45.3429C60.2834 43.5525 61.6826 42.156 62.3285 40.3146C62.9744 38.4735 62.7542 36.5088 62.4716 33.9897L61.9658 29.4408C61.7132 27.1671 61.5017 25.2616 61.1432 23.7397C60.764 22.1282 60.1682 20.696 58.9853 19.5132ZM44.0897 37.5921C44.969 36.714 44.9702 35.2893 44.0924 34.41C43.2143 33.5307 41.7896 33.5295 40.9103 34.4073L40.5575 34.7598C38.1341 33.6186 35.156 34.0131 33.1442 36.0219C32.0591 37.1052 31.166 38.5476 31.2629 40.3521C31.3559 42.0816 32.3357 43.5759 33.626 44.8644C34.5905 45.8271 34.7672 46.3947 34.7846 46.6413C34.7954 46.7958 34.7756 47.229 33.9554 48.048C33.2798 48.7224 32.7992 48.7764 32.4869 48.7419C32.072 48.696 31.4642 48.4263 30.7559 47.7192C30.1184 47.0826 29.875 46.2909 29.9328 45.6354C30.0421 44.3976 29.1272 43.3056 27.8894 43.1964C26.6516 43.0872 25.5595 44.0019 25.4503 45.2397C25.3353 46.5423 25.6065 47.8719 26.227 49.0668L25.9103 49.3827C25.0309 50.2608 25.0297 51.6855 25.9077 52.5648C26.7857 53.4441 28.2103 53.4453 29.0897 52.5675L29.3551 52.3023C30.1452 52.7715 31.0292 53.1084 31.9934 53.2146C33.8672 53.4216 35.6498 52.7151 37.1348 51.2325C38.4749 49.8945 39.4085 48.2598 39.2735 46.3275C39.1451 44.4876 38.0771 42.9492 36.8054 41.6796C35.8598 40.7358 35.7632 40.2351 35.7566 40.1106C35.7539 40.0602 35.7392 39.7896 36.3236 39.2064C37.0913 38.4399 38.399 38.4135 39.2432 39.2562C39.8096 39.8217 39.9872 40.6071 39.7994 41.2926C39.4706 42.4911 40.1756 43.7289 41.3741 44.0577C42.5723 44.3862 43.8104 43.6812 44.1389 42.483C44.5499 40.9845 44.4137 39.3675 43.7408 37.9404L44.0897 37.5921Z" fill="#00FFFF"/>
</svg>
