<svg width="29" height="30" viewBox="0 0 29 30" fill="none" xmlns="http://www.w3.org/2000/svg">
<g id="sent">
<path id="Vector" d="M25.3702 15.0824C25.3914 14.5103 25.0706 13.9674 24.6978 13.515C24.3061 13.0397 23.7591 12.5483 23.1268 12.0626C21.8586 11.0886 20.1638 10.0745 18.4439 9.19224C16.7229 8.30942 14.9497 7.54458 13.5162 7.07727C12.8028 6.84469 12.1492 6.67771 11.6173 6.61314C11.3525 6.58098 11.0916 6.5708 10.8563 6.60225C10.6319 6.63226 10.3486 6.71099 10.1317 6.93061C9.56263 7.50711 9.5479 8.30201 9.6916 8.98913C9.83825 9.69051 10.1815 10.4517 10.5667 11.1644C10.9561 11.8847 11.4114 12.5964 11.8091 13.202C11.8352 13.2416 11.8873 13.321 11.9512 13.4181C12.1917 13.7839 12.312 13.9669 12.4972 14.0667C12.6823 14.1666 12.9015 14.1666 13.3397 14.1666L17.6776 14.1666C18.1379 14.1666 18.511 14.5397 18.511 15C18.5109 15.4602 18.1378 15.8333 17.6776 15.8333L13.6323 15.8333C13.1855 15.8333 12.9622 15.8333 12.775 15.936C12.5877 16.0387 12.468 16.2266 12.2284 16.6026C11.2995 18.0599 10.5431 19.2752 10.1088 20.1674C9.85508 20.6885 9.67017 21.1743 9.61337 21.6121C9.55409 22.069 9.62957 22.5344 9.96981 22.9061C10.1816 23.1375 10.4671 23.2206 10.6873 23.253C10.9194 23.2873 11.1773 23.2798 11.4385 23.251C11.9634 23.1927 12.612 23.0345 13.3221 22.8123C14.7493 22.3656 16.5247 21.6285 18.2563 20.7754C19.9872 19.9227 21.7005 18.9411 22.9967 17.9975C23.6431 17.5269 24.2052 17.0517 24.6155 16.5931C25.0046 16.1581 25.3496 15.6375 25.3702 15.0824Z" fill="#8E8E8E"/>
</g>
</svg>
