<svg width="18" height="18" viewBox="0 0 18 18" fill="none" xmlns="http://www.w3.org/2000/svg">
<g id="smile">
<path id="Vector" fill-rule="evenodd" clip-rule="evenodd" d="M0.9375 9C0.9375 4.5472 4.5472 0.9375 9 0.9375C13.4528 0.9375 17.0625 4.5472 17.0625 9C17.0625 13.4528 13.4528 17.0625 9 17.0625C4.5472 17.0625 0.9375 13.4528 0.9375 9ZM5.66223 10.8002C5.91063 10.6136 6.26324 10.6638 6.44981 10.9122C7.03223 11.6876 7.95773 12.1875 9 12.1875C10.0423 12.1875 10.9678 11.6876 11.5502 10.9122C11.7368 10.6638 12.0894 10.6136 12.3379 10.8002C12.5863 10.9867 12.6364 11.3394 12.4498 11.5878C11.6641 12.634 10.4112 13.3125 9 13.3125C7.58887 13.3125 6.33602 12.634 5.55026 11.5878C5.3637 11.3394 5.41382 10.9867 5.66223 10.8002ZM6 5.8125C5.48223 5.8125 5.0625 6.23223 5.0625 6.75C5.0625 7.26777 5.48223 7.6875 6 7.6875H6.00673C6.5245 7.6875 6.94423 7.26777 6.94423 6.75C6.94423 6.23223 6.5245 5.8125 6.00673 5.8125H6ZM11.9932 5.8125C11.4755 5.8125 11.0557 6.23223 11.0557 6.75C11.0557 7.26777 11.4755 7.6875 11.9932 7.6875H12C12.5178 7.6875 12.9375 7.26777 12.9375 6.75C12.9375 6.23223 12.5178 5.8125 12 5.8125H11.9932Z" fill="#8E8E8E"/>
</g>
</svg>
