<svg width="32" height="33" viewBox="0 0 32 33" fill="none" xmlns="http://www.w3.org/2000/svg">
<g id="time-02">
<path id="Vector" d="M16.0001 29.3778C23.3638 29.3778 29.3334 23.4082 29.3334 16.0444C29.3334 8.68062 23.3638 2.71109 16.0001 2.71109C8.63628 2.71109 2.66675 8.68062 2.66675 16.0444C2.66675 23.4082 8.63628 29.3778 16.0001 29.3778Z" stroke="white" stroke-width="1.5"/>
<path id="Vector_2" d="M16.0105 14.0554C14.906 14.0554 14.0105 14.9508 14.0105 16.0554C14.0105 17.1599 14.906 18.0554 16.0105 18.0554C17.115 18.0554 18.0105 17.1599 18.0105 16.0554C18.0105 14.9508 17.115 14.0554 16.0105 14.0554ZM16.0105 14.0554V9.37646M20.0197 20.0708L17.4216 17.4727" stroke="white" stroke-width="1.5" stroke-linecap="round" stroke-linejoin="round"/>
</g>
</svg>
